PathFileType	4	(X/Y/Z)	Apose_0-50.trc
DataRate	CameraRate	NumFrames	NumMarkers	Units	OrigDataRate	OrigDataStartFrame	OrigNumFrames
30	30	4	22	m	30	0	50
Frame#	Time	Hip			RHip			RKnee			RAnkle			RBigToe			RSmallToe			RHeel			LHip			LKnee			LAnkle			LBigToe			LSmallToe			LHeel			Neck			Head			Nose			RShoulder			RElbow			RWrist			LShoulder			LElbow			LWrist		
		X1	Y1	Z1	X2	Y2	Z2	X3	Y3	Z3	X4	Y4	Z4	X5	Y5	Z5	X6	Y6	Z6	X7	Y7	Z7	X8	Y8	Z8	X9	Y9	Z9	X10	Y10	Z10	X11	Y11	Z11	X12	Y12	Z12	X13	Y13	Z13	X14	Y14	Z14	X15	Y15	Z15	X16	Y16	Z16	X17	Y17	Z17	X18	Y18	Z18	X19	Y19	Z19	X20	Y20	Z20	X21	Y21	Z21	X22	Y22	Z22
1	0.0333333333333333	0.0603090727045699	0.9175886804051128	0.36881481514539355	0.05258812476644769	0.8942499818747486	0.48107937348833435	0.018516686476995635	0.5021884578735737	0.4995545363224635	-0.0012469623790936828	0.10285177074749483	0.5117454721086532	0.2011733909373229	0.02925695391942649	0.546785922286022	0.14905571730707004	0.01835845538298277	0.6064025797078098	-0.05050279527276707	0.026034090164083704	0.5006248557105824	0.052698303057029695	0.8921332612843137	0.25651757783038853	0.041785666171568585	0.4957726780079751	0.2207359081508746	0.0073404912609247456	0.12231846191747696	0.20889253486650813	0.20355296474008996	0.03380292819543722	0.18813515849813844	0.15902112201657675	0.02941486571948567	0.12915278408262437	-0.057981167257168384	0.028523163188729914	0.20500576237673623	0.05611845945972633	1.5735341259192472	0.35665195452664833	0.16492190882750019	1.831791221763011	0.3464241170957515	0.2078081047236478	1.657481636727751	0.33021638704982487	0.037211912665655635	1.4836450586049377	0.5569757751241681	0.10099691536943109	1.2355523013693395	0.7270363797767616	0.18008536545021062	1.0369184037143562	0.8936734622458935	-0.0014542164280608874	1.4679289192913816	0.1674658722034873	0.017744066936861452	1.2309150484352056	0.018196589913222302	0.08600005888767395	1.0242040938874752	-0.13434736244283563
2	0.0666666666666666	0.056024074120659524	0.9182685126133467	0.36780468142291545	0.048909399927922995	0.8927778119472115	0.4793833327417079	0.015865496254347126	0.5033109083855215	0.5004927031980667	-0.003972518694280286	0.10372865073949461	0.514764502164928	0.20341706365113033	0.03342493655115443	0.5534582965201539	0.14964540045069613	0.02182029778260976	0.6115360704772256	-0.047833338855061754	0.02990784405344978	0.49953676623463117	0.04924881173369219	0.890367598690694	0.2556819183546046	0.03608266584106879	0.5004400792882373	0.22370535273091013	0.006885050560916543	0.12037084008722021	0.2104739192931162	0.20707065509634412	0.035179836332205984	0.18729172589271023	0.16095952562149118	0.032523673124758734	0.1297279176141843	-0.04970106535712053	0.03436545843104271	0.21256476670868965	0.05790978621498563	1.5711823843806083	0.3586079870198139	0.18704080379682772	1.8120573413271648	0.3343935202996066	0.2502618013211143	1.647366554769852	0.3376940022577288	0.03664323270034164	1.4844299929760956	0.5551947192558391	0.09809164703978	1.2346229103760318	0.7271980514947182	0.17292962367892398	1.0373512227888249	0.8943032294825188	0.003322165757638138	1.4699992168010658	0.16407184884909426	0.0163910599652234	1.2295089616077877	0.014946182808196741	0.07856422155932688	1.0200698075643369	-0.13698895513663098
3	0.1	0.05189552936541286	0.9187527248286284	0.36662456116230835	0.04511326782716554	0.8915753657836515	0.4778055918085772	0.013244354769600277	0.5041779531705333	0.5011716650802049	-0.006370895280503971	0.1043178227573421	0.5173199211478692	0.20546886378080906	0.03692941034670069	0.5591622769856895	0.1505169540382624	0.02501190573564166	0.6155524332989749	-0.045616084827096955	0.03288532990196916	0.4985446056339814	0.04559446640735233	0.8889893441000376	0.25461026524894687	0.03166169660799139	0.5038348459190899	0.22554791170978822	0.006552903257073533	0.1181666982442756	0.21165245331524654	0.21030290459086504	0.03625978203234949	0.18623888948810466	0.16287851798496242	0.035019250230621246	0.13034332371316518	-0.04220806739781619	0.039266140086768334	0.21935692491071648	0.060182897757011765	1.568972734976396	0.3600003824210894	0.21159786983584716	1.7943836972154386	0.32248373262467894	0.28620771548093316	1.6372329532709835	0.3439792142924	0.03619551584239419	1.4853542620986036	0.5533961297033896	0.09494182940918511	1.2335344978940597	0.7273409726301319	0.1650407908771129	1.038314493317619	0.8952019867353694	0.007624339954966545	1.4719623871903418	0.16092436538160276	0.014636831349468185	1.2285571711395653	0.011975589090567918	0.07120778021233547	1.0165512467676248	-0.1393888187938989
4	0.1333333333333333	0.04820908232726801	0.9189468425991356	0.3652995860974005	0.041415433363905525	0.8908320556739515	0.47648694062909774	0.01078141529407885	0.5046414861620542	0.5015103284418596	-0.008275279614158823	0.10443748362157887	0.5191737562285198	0.20712403797898007	0.03939211848441873	0.5632709858594787	0.1516239189991483	0.02772214659333134	0.6179267146834841	-0.044328144469249806	0.03453863070132612	0.497877367891508	0.04189429454182961	0.8882543586105514	0.25324338259135687	0.02888855019275854	0.5052241995447021	0.22581843853831937	0.0063705214432967705	0.11581603219819755	0.21227120353918377	0.21298044631202426	0.036966480112672534	0.1850013836846644	0.16456797223471253	0.03660243774908776	0.1309143360367474	-0.03633105455250453	0.04256432428356675	0.22456122259105502	0.06295326809302437	1.5671705854438485	0.3604881533176568	0.2390946431033757	1.780342157916811	0.3105219825564862	0.31199998998258044	1.6278328053253657	0.3484296505240234	0.035886296649972754	1.4864572207529636	0.5516530357977318	0.09159080913697216	1.2322377491143588	0.7274246961793438	0.15659139676444636	1.0399099961180063	0.89641443629654	0.011085940559075372	1.473663180298126	0.15828514708529356	0.012509942908814029	1.2282380110239632	0.009562436648309141	0.06445936810391849	1.0139927293285629	-0.1413135300479689
